<svg width="160" height="253" viewBox="0 0 160 253" fill="none" xmlns="http://www.w3.org/2000/svg">
<g id="download_buttons">
<g id="download_apk">
</g>
<g id="download_apple">
<rect id="Rectangle_2" y="50.5" width="160" height="50" rx="5" fill="black"/>
<path id="Shape" fill-rule="evenodd" clip-rule="evenodd" d="M31.4359 59C31.7042 60.8222 30.9625 62.6073 29.9841 63.8703C28.9374 65.225 27.1331 66.2728 25.385 66.2181C25.0658 64.4736 25.8829 62.6761 26.8771 61.4678C27.9677 60.1342 29.8368 59.1111 31.4359 59ZM36.6874 84.6481C37.5886 83.2669 37.9253 82.5702 38.6249 81.0108C33.5365 79.0758 32.7212 71.8418 37.757 69.0653C36.221 67.139 34.0625 66.0225 32.0251 66.0225C30.557 66.0225 29.5512 66.4056 28.6367 66.7539C27.8747 67.0441 27.1762 67.3102 26.3265 67.3102C25.4084 67.3102 24.5954 67.0186 23.7441 66.7134C22.8086 66.378 21.8269 66.026 20.6087 66.026C18.3223 66.026 15.8886 67.423 14.3456 69.8114C12.1766 73.1753 12.5466 79.4991 16.0639 84.8862C17.3211 86.8142 19.0008 88.9804 21.1979 88.9998C22.1095 89.0088 22.7161 88.7368 23.3726 88.4423C24.1239 88.1053 24.9406 87.739 26.3546 87.7315C27.7769 87.723 28.5807 88.0937 29.3221 88.4357C29.9617 88.7307 30.5549 89.0043 31.4587 88.9945C33.6575 88.9769 35.4302 86.5761 36.6874 84.6481Z" fill="white"/>
<g id="Group 2_2">
<path id="DOWNLOAD ON THE" d="M51.1592 61.0015V67H53.2729C55.2241 67 55.9404 65.73 55.9404 63.9897C55.9404 62.2319 55.2065 61.0015 53.2729 61.0015H51.1592ZM52.2227 61.8892H53.1455C54.4243 61.8892 54.8462 62.7593 54.8462 64.0073C54.8462 65.4883 54.2617 66.1123 53.1455 66.1123H52.2227V61.8892ZM58.5105 63.6162C58.5105 62.4033 59.1258 61.7837 59.9563 61.7837C60.7913 61.7837 61.3977 62.4033 61.3977 63.6162V64.4292C61.3977 65.6421 60.7913 66.2178 59.9563 66.2178C59.1258 66.2178 58.5105 65.6421 58.5105 64.4292V63.6162ZM57.4339 64.4248C57.4339 66.1211 58.3919 67.1187 59.9519 67.1187C61.512 67.1187 62.4788 66.1211 62.4788 64.4248V63.625C62.4788 61.9243 61.5252 60.8828 59.9607 60.8828C58.4051 60.8828 57.4339 61.9199 57.4339 63.625V64.4248ZM66.2354 67L67.3912 62.6802H67.4307L68.5865 67H69.5577L71.1617 61.0015H70.0235L69.0303 65.4048H68.9864L67.8921 61.0015H66.9341L65.8355 65.4048H65.796L64.7984 61.0015H63.6602L65.2598 67H66.2354ZM73.5824 67V62.79H73.6131L76.3949 67H77.3045V61.0015H76.3114V65.1982H76.2762L73.5033 61.0015H72.5848V67H73.5824ZM83.0255 66.0859H80.4152V61.0015H79.3517V67H83.0255V66.0859ZM85.2704 63.6162C85.2704 62.4033 85.8856 61.7837 86.7162 61.7837C87.5512 61.7837 88.1576 62.4033 88.1576 63.6162V64.4292C88.1576 65.6421 87.5512 66.2178 86.7162 66.2178C85.8856 66.2178 85.2704 65.6421 85.2704 64.4292V63.6162ZM84.1937 64.4248C84.1937 66.1211 85.1518 67.1187 86.7118 67.1187C88.2719 67.1187 89.2387 66.1211 89.2387 64.4248V63.625C89.2387 61.9243 88.2851 60.8828 86.7206 60.8828C85.1649 60.8828 84.1937 61.9199 84.1937 63.625V64.4248ZM91.4264 67L91.9362 65.3828H94.006L94.5158 67H95.654L93.6105 61.0015H92.402L90.3542 67H91.4264ZM92.9953 62.0781L93.7775 64.5742H92.1691L92.9557 62.0781H92.9953ZM97.1123 61.0015V67H99.226C101.177 67 101.894 65.73 101.894 63.9897C101.894 62.2319 101.16 61.0015 99.226 61.0015H97.1123ZM98.1757 61.8892H99.0986C100.377 61.8892 100.799 62.7593 100.799 64.0073C100.799 65.4883 100.215 66.1123 99.0986 66.1123H98.1757V61.8892ZM106.968 63.6162C106.968 62.4033 107.583 61.7837 108.414 61.7837C109.249 61.7837 109.855 62.4033 109.855 63.6162V64.4292C109.855 65.6421 109.249 66.2178 108.414 66.2178C107.583 66.2178 106.968 65.6421 106.968 64.4292V63.6162ZM105.891 64.4248C105.891 66.1211 106.849 67.1187 108.409 67.1187C109.969 67.1187 110.936 66.1211 110.936 64.4248V63.625C110.936 61.9243 109.982 60.8828 108.418 60.8828C106.862 60.8828 105.891 61.9199 105.891 63.625V64.4248ZM113.735 67V62.79H113.765L116.547 67H117.457V61.0015H116.464V65.1982H116.429L113.656 61.0015H112.737V67H113.735ZM124.219 67V61.9023H125.963V61.0015H121.424V61.9023H123.164V67H124.219ZM132.22 67V61.0015H131.157V63.4756H128.485V61.0015H127.422V67H128.485V64.3721H131.157V67H132.22ZM138.047 66.1123H135.318V64.3765H137.884V63.5371H135.318V61.8892H138.047V61.0015H134.259V67H138.047V66.1123Z" fill="white"/>
<path id="App Store" d="M49.1909 89L54.4243 73.6704H57.5127L62.7349 89H59.8262L58.5234 84.8672H53.2339L51.9312 89H49.1909ZM53.8291 82.8008H57.9395L55.9404 76.4219H55.8394L53.8291 82.8008ZM64.4028 93.0093V77.1069H66.9971V78.8252H67.0981C67.3452 78.2562 67.772 77.8032 68.3784 77.4663C68.9848 77.1219 69.7335 76.9497 70.6245 76.9497C71.9796 76.9497 73.0615 77.4251 73.8701 78.376C74.6862 79.3268 75.0942 80.652 75.0942 82.3516V83.7778C75.0942 85.4774 74.6862 86.7988 73.8701 87.7422C73.0615 88.6855 71.9647 89.1572 70.5796 89.1572C69.7111 89.1572 68.9923 88.9888 68.4233 88.6519C67.8543 88.3149 67.435 87.8732 67.1655 87.3267H67.0532V93.0093H64.4028ZM67.0532 83.6318C67.0532 84.6126 67.2965 85.4212 67.7832 86.0576C68.2773 86.6865 68.9399 87.001 69.771 87.001C70.5646 87.001 71.1972 86.709 71.6689 86.125C72.1481 85.5335 72.3877 84.6763 72.3877 83.5532V82.5537C72.3877 81.4456 72.1518 80.5959 71.6802 80.0044C71.2085 79.4054 70.5571 79.106 69.7261 79.106C68.9025 79.106 68.2511 79.4092 67.772 80.0156C67.2928 80.6146 67.0532 81.4157 67.0532 82.4189V83.6318ZM77.4248 93.0093V77.1069H80.019V78.8252H80.1201C80.3671 78.2562 80.7939 77.8032 81.4004 77.4663C82.0068 77.1219 82.7555 76.9497 83.6464 76.9497C85.0016 76.9497 86.0835 77.4251 86.8921 78.376C87.7081 79.3268 88.1162 80.652 88.1162 82.3516V83.7778C88.1162 85.4774 87.7081 86.7988 86.8921 87.7422C86.0835 88.6855 84.9866 89.1572 83.6015 89.1572C82.733 89.1572 82.0143 88.9888 81.4453 88.6519C80.8763 88.3149 80.457 87.8732 80.1875 87.3267H80.0752V93.0093H77.4248ZM80.0752 83.6318C80.0752 84.6126 80.3185 85.4212 80.8051 86.0576C81.2993 86.6865 81.9619 87.001 82.7929 87.001C83.5866 87.001 84.2192 86.709 84.6909 86.125C85.17 85.5335 85.4096 84.6763 85.4096 83.5532V82.5537C85.4096 81.4456 85.1738 80.5959 84.7021 80.0044C84.2304 79.4054 83.5791 79.106 82.748 79.106C81.9244 79.106 81.2731 79.4092 80.7939 80.0156C80.3147 80.6146 80.0752 81.4157 80.0752 82.4189V83.6318ZM93.9003 84.71H96.5395C96.5994 85.3913 96.9213 85.9603 97.5053 86.417C98.0893 86.8662 98.8866 87.0908 99.8974 87.0908C100.856 87.0908 101.604 86.8849 102.143 86.4731C102.69 86.0614 102.963 85.5036 102.963 84.7998C102.963 84.2458 102.769 83.804 102.379 83.4746C101.997 83.1452 101.391 82.8794 100.56 82.6772L98.1005 82.082C97.5689 81.9622 97.0823 81.7975 96.6405 81.5879C96.2063 81.3708 95.8058 81.1012 95.4389 80.7793C95.0795 80.4499 94.7988 80.0418 94.5966 79.5552C94.3945 79.0685 94.2934 78.522 94.2934 77.9155C94.2934 76.9647 94.5517 76.1374 95.0683 75.4336C95.5849 74.7223 96.2625 74.1945 97.101 73.8501C97.9395 73.5057 98.8717 73.3335 99.8974 73.3335C100.931 73.3335 101.863 73.5094 102.694 73.8613C103.532 74.2132 104.199 74.7373 104.693 75.4336C105.194 76.1224 105.453 76.9235 105.468 77.8369H102.885C102.832 77.1706 102.548 76.6203 102.031 76.186C101.515 75.7518 100.796 75.5347 99.8749 75.5347C99.0139 75.5347 98.3214 75.7293 97.7973 76.1187C97.2807 76.5005 97.0224 77.0283 97.0224 77.7021C97.0224 78.6979 97.7262 79.3605 99.1337 79.6899L101.604 80.2852C102.218 80.4274 102.757 80.6034 103.222 80.813C103.686 81.0226 104.109 81.2922 104.491 81.6216C104.88 81.951 105.176 82.3628 105.378 82.8569C105.58 83.3511 105.681 83.9201 105.681 84.564C105.681 86.0464 105.135 87.2069 104.041 88.0454C102.956 88.884 101.511 89.3032 99.7065 89.3032C98.8754 89.3032 98.123 89.2096 97.4491 89.0225C96.7828 88.8353 96.2325 88.592 95.7983 88.2925C95.3715 87.993 95.0121 87.6411 94.7201 87.2368C94.4281 86.825 94.2185 86.4132 94.0912 86.0015C93.9714 85.5822 93.9078 85.1517 93.9003 84.71ZM107.136 79.2856V77.208H108.843V74.2432H111.426V77.208H113.739V79.2856H111.426V85.3838C111.426 86.0052 111.557 86.432 111.819 86.6641C112.088 86.8887 112.556 87.001 113.223 87.001C113.515 87.001 113.709 86.9935 113.807 86.9785V88.9888C113.425 89.0487 113.013 89.0786 112.571 89.0786C111.605 89.0786 110.845 88.9551 110.291 88.708C109.737 88.4609 109.348 88.0978 109.123 87.6187C108.906 87.132 108.798 86.4769 108.798 85.6533V79.2856H107.136ZM115.272 83.4634V82.6211C115.272 81.513 115.463 80.536 115.845 79.6899C116.234 78.8439 116.837 78.1701 117.653 77.6685C118.469 77.1668 119.458 76.916 120.618 76.916C122.355 76.916 123.676 77.4326 124.582 78.4658C125.496 79.4915 125.953 80.8729 125.953 82.6099V83.4634C125.953 85.2453 125.5 86.6491 124.594 87.6748C123.688 88.693 122.363 89.2021 120.618 89.2021C118.874 89.2021 117.545 88.693 116.631 87.6748C115.725 86.6566 115.272 85.2528 115.272 83.4634ZM117.934 83.396C117.934 83.9051 117.979 84.3693 118.069 84.7886C118.159 85.2078 118.301 85.5972 118.495 85.9565C118.69 86.3084 118.967 86.5854 119.327 86.7876C119.686 86.9897 120.116 87.0908 120.618 87.0908C121.112 87.0908 121.539 86.9935 121.898 86.7988C122.258 86.5967 122.531 86.3159 122.718 85.9565C122.913 85.5972 123.051 85.2078 123.134 84.7886C123.224 84.3693 123.268 83.9051 123.268 83.396V82.7109C123.268 82.1943 123.224 81.7264 123.134 81.3071C123.051 80.8879 122.913 80.4985 122.718 80.1392C122.523 79.7798 122.246 79.5028 121.887 79.3081C121.535 79.106 121.112 79.0049 120.618 79.0049C120.124 79.0049 119.693 79.106 119.327 79.3081C118.967 79.5103 118.69 79.791 118.495 80.1504C118.301 80.5023 118.159 80.8916 118.069 81.3184C117.979 81.7376 117.934 82.2018 117.934 82.7109V83.396ZM128.384 89V77.1182H131.035V78.6567H131.136C131.585 77.5112 132.524 76.9385 133.954 76.9385C134.261 76.9385 134.553 76.9647 134.83 77.0171V79.3418C134.643 79.2819 134.276 79.252 133.73 79.252C131.963 79.252 131.079 80.1729 131.079 82.0146V89H128.384ZM135.791 83.5869V82.5874C135.791 80.8504 136.248 79.4728 137.161 78.4546C138.074 77.4289 139.336 76.916 140.946 76.916C142.585 76.916 143.851 77.4289 144.742 78.4546C145.64 79.4803 146.089 80.8542 146.089 82.5762V83.6431H138.408V84.0137C138.408 84.8896 138.64 85.6234 139.104 86.2148C139.568 86.8063 140.231 87.1021 141.092 87.1021C141.773 87.1021 142.305 86.9523 142.686 86.6528C143.076 86.3534 143.315 85.9753 143.405 85.5186H145.966C145.928 85.8555 145.842 86.1886 145.707 86.5181C145.58 86.8475 145.389 87.1769 145.135 87.5063C144.88 87.8358 144.573 88.124 144.214 88.3711C143.862 88.6182 143.416 88.8203 142.877 88.9775C142.338 89.1273 141.747 89.2021 141.103 89.2021C139.411 89.2021 138.101 88.7043 137.172 87.7085C136.251 86.7052 135.791 85.3314 135.791 83.5869ZM138.408 81.8574H143.506V81.835C143.506 80.9814 143.278 80.2889 142.821 79.7573C142.364 79.2257 141.747 78.96 140.968 78.96C140.182 78.96 139.557 79.2295 139.093 79.7686C138.636 80.3001 138.408 80.9889 138.408 81.835V81.8574Z" fill="white"/>
</g>
</g>
</g>
<defs>
<linearGradient id="paint0_linear" x1="12.3636" y1="213" x2="34.5909" y2="243" gradientUnits="userSpaceOnUse">
<stop stop-color="#F004E1"/>
<stop offset="0.737772" stop-color="#FF226C"/>
<stop offset="1" stop-color="#FF6655"/>
</linearGradient>
<linearGradient id="paint1_linear" x1="26.8859" y1="139.053" x2="7.41489" y2="119.353" gradientUnits="userSpaceOnUse">
<stop stop-color="#00A0FF"/>
<stop offset="0.0066" stop-color="#00A1FF"/>
<stop offset="0.2601" stop-color="#00BEFF"/>
<stop offset="0.5122" stop-color="#00D2FF"/>
<stop offset="0.7604" stop-color="#00DFFF"/>
<stop offset="1" stop-color="#00E3FF"/>
</linearGradient>
<linearGradient id="paint2_linear" x1="41.0137" y1="125.951" x2="12.6079" y2="125.951" gradientUnits="userSpaceOnUse">
<stop stop-color="#FFE000"/>
<stop offset="0.4087" stop-color="#FFBD00"/>
<stop offset="0.7754" stop-color="#FFA500"/>
<stop offset="1" stop-color="#FF9C00"/>
</linearGradient>
<linearGradient id="paint3_linear" x1="30.4398" y1="123.289" x2="4.03552" y2="96.5736" gradientUnits="userSpaceOnUse">
<stop stop-color="#FF3A44"/>
<stop offset="1" stop-color="#C31162"/>
</linearGradient>
<linearGradient id="paint4_linear" x1="9.86095" y1="148.954" x2="21.6517" y2="137.025" gradientUnits="userSpaceOnUse">
<stop stop-color="#32A071"/>
<stop offset="0.0685" stop-color="#2DA771"/>
<stop offset="0.4762" stop-color="#15CF74"/>
<stop offset="0.8009" stop-color="#06E775"/>
<stop offset="1" stop-color="#00F076"/>
</linearGradient>
</defs>
</svg>
